<svg width="19" height="24" viewBox="0 0 19 24" fill="none" xmlns="http://www.w3.org/2000/svg">
<path d="M18.0197 0H0.44344C0.199 0 0 0.200039 0 0.445757V23.5542C0 23.7196 0.0908818 23.8708 0.236606 23.948C0.302417 23.9827 0.372929 24 0.44344 24C0.531188 24 0.617369 23.9732 0.692582 23.9228L9.23077 18.0902L17.7705 23.9228C17.9021 24.0142 18.0839 24.0236 18.2265 23.948C18.3722 23.8708 18.4615 23.7196 18.4615 23.5542V0.445757C18.4615 0.200039 18.2625 0 18.0197 0ZM11.8601 10.5722L13.2499 14.8706C13.2766 14.9557 13.2484 15.0455 13.1763 15.0975C13.1073 15.1479 13.0086 15.1479 12.9397 15.0975L9.30285 12.4402C9.25897 12.4087 9.20256 12.4087 9.16026 12.4402L5.52185 15.0975C5.45134 15.1494 5.35732 15.1494 5.28525 15.0975C5.21473 15.0455 5.18496 14.9557 5.21317 14.8706L6.60303 10.5722C6.6187 10.5218 6.60147 10.4682 6.55916 10.4367L2.92075 7.77948C2.85024 7.72751 2.82047 7.63772 2.84711 7.55424C2.87374 7.47076 2.95209 7.41406 3.03827 7.41406H7.53535C7.58706 7.41406 7.63407 7.37941 7.64974 7.33058L9.0396 3.03052C9.06781 2.94704 9.14302 2.89191 9.23077 2.89191C9.31852 2.89191 9.3953 2.94704 9.42193 3.03052L10.8118 7.33058C10.8275 7.37941 10.8745 7.41406 10.9278 7.41406H15.4233C15.511 7.41406 15.5878 7.47076 15.616 7.55424C15.6426 7.63772 15.6129 7.72751 15.5424 7.77948L11.9039 10.4367C11.8616 10.4682 11.8444 10.5218 11.8601 10.5722Z" fill="#057DFF"/>
</svg>
