<svg width="43" height="41" viewBox="0 0 43 41" fill="none" xmlns="http://www.w3.org/2000/svg">
<g clip-path="url(#clip0_140_120)">
<path d="M33.1958 35.0717H0.804239C0.553798 35.0717 0.349213 34.8686 0.349213 34.62V10.7984C0.349213 10.5462 0.553798 10.3466 0.804239 10.3466H33.1993C33.4497 10.3466 33.6543 10.5497 33.6543 10.7984V34.6165C33.6543 34.8686 33.4497 35.0682 33.1993 35.0682L33.1958 35.0717ZM1.25927 34.1648H32.7407V11.2501H1.25927V34.1648Z" fill="#000623" stroke="#000623" stroke-miterlimit="10"/>
<path d="M33.1958 35.2398H0.804227C0.458548 35.2398 0.176361 34.9597 0.176361 34.6165V10.7984C0.176361 10.4552 0.458548 10.1751 0.804227 10.1751H33.1993C33.545 10.1751 33.8272 10.4552 33.8272 10.7984V34.6165C33.8272 34.9597 33.545 35.2398 33.1993 35.2398H33.1958ZM0.804227 10.5147C0.645497 10.5147 0.518513 10.6408 0.518513 10.7984V34.6165C0.518513 34.7741 0.645497 34.9001 0.804227 34.9001H33.1993C33.358 34.9001 33.485 34.7741 33.485 34.6165V10.7984C33.485 10.6408 33.358 10.5147 33.1993 10.5147H0.804227ZM32.7407 34.3329H1.25925C1.16402 34.3329 1.08641 34.2558 1.08641 34.1613V11.2501C1.08641 11.1555 1.16402 11.082 1.25925 11.082H32.7407C32.836 11.082 32.9136 11.159 32.9136 11.2501V34.1648C32.9136 34.2593 32.836 34.3364 32.7407 34.3364V34.3329ZM1.43209 33.9932H32.5714V11.4217H1.43209V33.9967V33.9932Z" fill="#000623" stroke="#000623" stroke-miterlimit="10"/>
<path d="M12.8289 40.2401C12.575 40.2401 12.3739 40.037 12.3739 39.7884V34.6165C12.3739 34.3679 12.5785 34.1648 12.8289 34.1648C13.0794 34.1648 13.284 34.3679 13.284 34.6165V39.7884C13.284 40.037 13.0794 40.2401 12.8289 40.2401Z" fill="#000623" stroke="#000623" stroke-miterlimit="10"/>
<path d="M12.8289 40.4117C12.4832 40.4117 12.201 40.1316 12.201 39.7884V34.6165C12.201 34.2734 12.4832 33.9932 12.8289 33.9932C13.1746 33.9932 13.4568 34.2734 13.4568 34.6165V39.7884C13.4568 40.1316 13.1746 40.4117 12.8289 40.4117ZM12.8289 34.3364C12.6702 34.3364 12.5432 34.4624 12.5432 34.62V39.7919C12.5432 39.9495 12.6702 40.0756 12.8289 40.0756C12.9876 40.0756 13.1146 39.9495 13.1146 39.7919V34.62C13.1146 34.4624 12.9876 34.3364 12.8289 34.3364Z" fill="#000623" stroke="#000623" stroke-miterlimit="10"/>
<path d="M21.1922 40.2401C20.9383 40.2401 20.7372 40.037 20.7372 39.7884V34.6165C20.7372 34.3679 20.9418 34.1648 21.1922 34.1648C21.4427 34.1648 21.6473 34.3679 21.6473 34.6165V39.7884C21.6473 40.037 21.4427 40.2401 21.1922 40.2401Z" fill="#000623" stroke="#000623" stroke-miterlimit="10"/>
<path d="M21.1922 40.4117C20.8465 40.4117 20.5644 40.1316 20.5644 39.7884V34.6165C20.5644 34.2734 20.8465 33.9932 21.1922 33.9932C21.5379 33.9932 21.8201 34.2734 21.8201 34.6165V39.7884C21.8201 40.1316 21.5379 40.4117 21.1922 40.4117ZM21.1922 34.3364C21.0335 34.3364 20.9065 34.4624 20.9065 34.62V39.7919C20.9065 39.9495 21.0335 40.0756 21.1922 40.0756C21.351 40.0756 21.4779 39.9495 21.4779 39.7919V34.62C21.4779 34.4624 21.351 34.3364 21.1922 34.3364Z" fill="#000623" stroke="#000623" stroke-miterlimit="10"/>
<path d="M32.7125 30.9188H0.804239C0.553798 30.9188 0.349213 30.7157 0.349213 30.4671C0.349213 30.2184 0.553798 30.0154 0.804239 30.0154H32.7125C32.963 30.0154 33.1676 30.2184 33.1676 30.4671C33.1676 30.7157 32.963 30.9188 32.7125 30.9188Z" fill="#000623" stroke="#000623" stroke-miterlimit="10"/>
<path d="M32.7125 31.0869H0.804227C0.458548 31.0869 0.176361 30.8067 0.176361 30.4636C0.176361 30.1204 0.458548 29.8403 0.804227 29.8403H32.7125C33.0582 29.8403 33.3404 30.1204 33.3404 30.4636C33.3404 30.8067 33.0582 31.0869 32.7125 31.0869ZM0.804227 30.1834C0.645497 30.1834 0.518513 30.3095 0.518513 30.4671C0.518513 30.6246 0.645497 30.7507 0.804227 30.7507H32.7125C32.8712 30.7507 32.9982 30.6246 32.9982 30.4671C32.9982 30.3095 32.8712 30.1834 32.7125 30.1834H0.804227Z" fill="#000623" stroke="#000623" stroke-miterlimit="10"/>
<path d="M25.1464 40.6568H8.79719C8.54322 40.6568 8.34216 40.4537 8.34216 40.2051C8.34216 39.9565 8.54675 39.7534 8.79719 39.7534H25.1464C25.4004 39.7534 25.6014 39.9565 25.6014 40.2051C25.6014 40.4537 25.3968 40.6568 25.1464 40.6568Z" fill="#000623" stroke="#000623" stroke-miterlimit="10"/>
<path d="M25.1464 40.8249H8.79718C8.4515 40.8249 8.16931 40.5448 8.16931 40.2016C8.16931 39.8585 8.4515 39.5783 8.79718 39.5783H25.1464C25.4921 39.5783 25.7743 39.8585 25.7743 40.2016C25.7743 40.5448 25.4921 40.8249 25.1464 40.8249ZM8.79718 39.918C8.63845 39.918 8.51146 40.0441 8.51146 40.2016C8.51146 40.3592 8.63845 40.4853 8.79718 40.4853H25.1464C25.3051 40.4853 25.4321 40.3592 25.4321 40.2016C25.4321 40.0441 25.3051 39.918 25.1464 39.918H8.79718Z" fill="#000623" stroke="#000623" stroke-miterlimit="10"/>
<path d="M32.7125 11.082H1.08994V30.1834H32.7125V11.082Z" fill="#000623" stroke="#000623" stroke-miterlimit="10"/>
</g>
<g filter="url(#filter0_d_140_120)">
<circle cx="33.5" cy="9.5" r="3.5" fill="#FF0000"/>
</g>
<defs>
<filter id="filter0_d_140_120" x="24" y="0" width="19" height="19" filterUnits="userSpaceOnUse" color-interpolation-filters="sRGB">
<feFlood flood-opacity="0" result="BackgroundImageFix"/>
<feColorMatrix in="SourceAlpha" type="matrix" values="0 0 0 0 0 0 0 0 0 0 0 0 0 0 0 0 0 0 127 0" result="hardAlpha"/>
<feOffset/>
<feGaussianBlur stdDeviation="3"/>
<feComposite in2="hardAlpha" operator="out"/>
<feColorMatrix type="matrix" values="0 0 0 0 1 0 0 0 0 0 0 0 0 0 0 0 0 0 1 0"/>
<feBlend mode="normal" in2="BackgroundImageFix" result="effect1_dropShadow_140_120"/>
<feBlend mode="normal" in="SourceGraphic" in2="effect1_dropShadow_140_120" result="shape"/>
</filter>
<clipPath id="clip0_140_120">
<rect width="34" height="31" fill="white" transform="translate(0 10)"/>
</clipPath>
</defs>
</svg>
