<svg width="32" height="30" viewBox="0 0 32 30" fill="none" xmlns="http://www.w3.org/2000/svg">
<g clip-path="url(#clip0_140_120)">
<path d="M22.7628 25.9349H0.55149C0.379759 25.9349 0.239471 25.7956 0.239471 25.6251V9.29031C0.239471 9.11742 0.379759 8.98056 0.55149 8.98056H22.7653C22.937 8.98056 23.0773 9.11983 23.0773 9.29031V25.6227C23.0773 25.7956 22.937 25.9325 22.7653 25.9325L22.7628 25.9349ZM0.863508 25.313H22.4508V9.60005H0.863508V25.313Z" fill="#057DFF" stroke="#057DFF" stroke-miterlimit="10"/>
<path d="M22.7628 26.0502H0.551478C0.314441 26.0502 0.120941 25.8581 0.120941 25.6228V9.29031C0.120941 9.055 0.314441 8.86292 0.551478 8.86292H22.7652C23.0023 8.86292 23.1958 9.055 23.1958 9.29031V25.6228C23.1958 25.8581 23.0023 26.0502 22.7652 26.0502H22.7628ZM0.551478 9.09582C0.442634 9.09582 0.355559 9.18226 0.355559 9.29031V25.6228C0.355559 25.7308 0.442634 25.8172 0.551478 25.8172H22.7652C22.8741 25.8172 22.9612 25.7308 22.9612 25.6228V9.29031C22.9612 9.18226 22.8741 9.09582 22.7652 9.09582H0.551478ZM22.4508 25.4283H0.863496C0.79819 25.4283 0.744978 25.3754 0.744978 25.3106V9.60006C0.744978 9.53523 0.79819 9.48481 0.863496 9.48481H22.4508C22.5161 9.48481 22.5693 9.53763 22.5693 9.60006V25.313C22.5693 25.3778 22.5161 25.4307 22.4508 25.4307V25.4283ZM0.982015 25.1954H22.3347V9.71771H0.982015V25.1978V25.1954Z" fill="#057DFF" stroke="#057DFF" stroke-miterlimit="10"/>
<path d="M8.797 29.4789C8.62285 29.4789 8.48499 29.3397 8.48499 29.1692V25.6227C8.48499 25.4523 8.62527 25.313 8.797 25.313C8.96873 25.313 9.10902 25.4523 9.10902 25.6227V29.1692C9.10902 29.3397 8.96873 29.4789 8.797 29.4789Z" fill="#057DFF" stroke="#057DFF" stroke-miterlimit="10"/>
<path d="M8.79699 29.5966C8.55995 29.5966 8.36646 29.4045 8.36646 29.1692V25.6227C8.36646 25.3874 8.55995 25.1953 8.79699 25.1953C9.03403 25.1953 9.22753 25.3874 9.22753 25.6227V29.1692C9.22753 29.4045 9.03403 29.5966 8.79699 29.5966ZM8.79699 25.4307C8.68815 25.4307 8.60107 25.5171 8.60107 25.6251V29.1716C8.60107 29.2797 8.68815 29.3661 8.79699 29.3661C8.90584 29.3661 8.99291 29.2797 8.99291 29.1716V25.6251C8.99291 25.5171 8.90584 25.4307 8.79699 25.4307Z" fill="#057DFF" stroke="#057DFF" stroke-miterlimit="10"/>
<path d="M14.5318 29.4789C14.3577 29.4789 14.2198 29.3397 14.2198 29.1692V25.6227C14.2198 25.4523 14.3601 25.313 14.5318 25.313C14.7036 25.313 14.8439 25.4523 14.8439 25.6227V29.1692C14.8439 29.3397 14.7036 29.4789 14.5318 29.4789Z" fill="#057DFF" stroke="#057DFF" stroke-miterlimit="10"/>
<path d="M14.5318 29.5966C14.2948 29.5966 14.1013 29.4045 14.1013 29.1692V25.6227C14.1013 25.3874 14.2948 25.1953 14.5318 25.1953C14.7689 25.1953 14.9624 25.3874 14.9624 25.6227V29.1692C14.9624 29.4045 14.7689 29.5966 14.5318 29.5966ZM14.5318 25.4307C14.423 25.4307 14.3359 25.5171 14.3359 25.6251V29.1716C14.3359 29.2797 14.423 29.3661 14.5318 29.3661C14.6407 29.3661 14.7277 29.2797 14.7277 29.1716V25.6251C14.7277 25.5171 14.6407 25.4307 14.5318 25.4307Z" fill="#057DFF" stroke="#057DFF" stroke-miterlimit="10"/>
<path d="M22.4315 23.0872H0.55149C0.379759 23.0872 0.239471 22.9479 0.239471 22.7774C0.239471 22.6069 0.379759 22.4677 0.55149 22.4677H22.4315C22.6032 22.4677 22.7435 22.6069 22.7435 22.7774C22.7435 22.9479 22.6032 23.0872 22.4315 23.0872Z" fill="#057DFF" stroke="#057DFF" stroke-miterlimit="10"/>
<path d="M22.4315 23.2024H0.551478C0.314441 23.2024 0.120941 23.0103 0.120941 22.775C0.120941 22.5397 0.314441 22.3476 0.551478 22.3476H22.4315C22.6685 22.3476 22.862 22.5397 22.862 22.775C22.862 23.0103 22.6685 23.2024 22.4315 23.2024ZM0.551478 22.5829C0.442634 22.5829 0.355559 22.6694 0.355559 22.7774C0.355559 22.8855 0.442634 22.9719 0.551478 22.9719H22.4315C22.5403 22.9719 22.6274 22.8855 22.6274 22.7774C22.6274 22.6694 22.5403 22.5829 22.4315 22.5829H0.551478Z" fill="#057DFF" stroke="#057DFF" stroke-miterlimit="10"/>
<path d="M17.2432 29.7647H6.03236C5.85821 29.7647 5.72034 29.6254 5.72034 29.4549C5.72034 29.2845 5.86062 29.1452 6.03236 29.1452H17.2432C17.4174 29.1452 17.5553 29.2845 17.5553 29.4549C17.5553 29.6254 17.415 29.7647 17.2432 29.7647Z" fill="#057DFF" stroke="#057DFF" stroke-miterlimit="10"/>
<path d="M17.2432 29.8799H6.03234C5.79531 29.8799 5.60181 29.6879 5.60181 29.4525C5.60181 29.2172 5.79531 29.0251 6.03234 29.0251H17.2432C17.4803 29.0251 17.6738 29.2172 17.6738 29.4525C17.6738 29.6879 17.4803 29.8799 17.2432 29.8799ZM6.03234 29.2581C5.9235 29.2581 5.83642 29.3445 5.83642 29.4525C5.83642 29.5606 5.9235 29.647 6.03234 29.647H17.2432C17.3521 29.647 17.4391 29.5606 17.4391 29.4525C17.4391 29.3445 17.3521 29.2581 17.2432 29.2581H6.03234Z" fill="#057DFF" stroke="#057DFF" stroke-miterlimit="10"/>
<path d="M22.4315 9.4848H0.747406V22.5829H22.4315V9.4848Z" fill="#057DFF" stroke="#057DFF" stroke-miterlimit="10"/>
</g>
<g filter="url(#filter0_d_140_120)">
<circle cx="22.9714" cy="8.4" r="2.4" fill="#FF0000"/>
</g>
<defs>
<filter id="filter0_d_140_120" x="14.5714" y="0" width="16.8" height="16.8" filterUnits="userSpaceOnUse" color-interpolation-filters="sRGB">
<feFlood flood-opacity="0" result="BackgroundImageFix"/>
<feColorMatrix in="SourceAlpha" type="matrix" values="0 0 0 0 0 0 0 0 0 0 0 0 0 0 0 0 0 0 127 0" result="hardAlpha"/>
<feOffset/>
<feGaussianBlur stdDeviation="3"/>
<feComposite in2="hardAlpha" operator="out"/>
<feColorMatrix type="matrix" values="0 0 0 0 1 0 0 0 0 0 0 0 0 0 0 0 0 0 1 0"/>
<feBlend mode="normal" in2="BackgroundImageFix" result="effect1_dropShadow_140_120"/>
<feBlend mode="normal" in="SourceGraphic" in2="effect1_dropShadow_140_120" result="shape"/>
</filter>
<clipPath id="clip0_140_120">
<rect width="23.3143" height="21.2571" fill="white" transform="translate(0 8.74286)"/>
</clipPath>
</defs>
</svg>
