<svg width="34" height="24" viewBox="0 0 34 24" fill="none" xmlns="http://www.w3.org/2000/svg">
<path d="M16.5368 11.7794C13.2935 11.7794 10.6556 9.16459 10.6556 5.95117C10.6556 2.73774 13.2935 0.123627 16.5368 0.123627C19.7801 0.123627 22.4179 2.73842 22.4179 5.95184C22.4179 9.16526 19.7794 11.7801 16.5368 11.7801V11.7794ZM16.5368 0.781716C13.6603 0.781716 11.3196 3.10057 11.3196 5.95117C11.3196 8.80176 13.6603 11.1213 16.5368 11.1213C19.4133 11.1213 21.7532 8.80176 21.7532 5.95117C21.7532 3.10057 19.4126 0.781716 16.5368 0.781716Z" fill="#057DFF"/>
<path d="M16.5367 11.903C13.2253 11.903 10.5308 9.23285 10.5308 5.95119C10.5308 2.66952 13.2253 0 16.5367 0C19.8482 0 22.542 2.66952 22.542 5.95119C22.542 9.23285 19.8482 11.903 16.5367 11.903ZM16.5367 0.246615C13.3623 0.246615 10.7796 2.806 10.7796 5.95119C10.7796 9.09637 13.3623 11.6558 16.5361 11.6558C19.7098 11.6558 22.2925 9.09637 22.2925 5.95119C22.2925 2.806 19.7105 0.246615 16.5367 0.246615ZM16.5367 11.2443C13.5914 11.2443 11.1955 8.87002 11.1955 5.95119C11.1955 3.03235 13.5914 0.658765 16.5367 0.658765C19.4821 0.658765 21.8779 3.03302 21.8779 5.95186C21.8779 8.8707 19.4821 11.245 16.5367 11.245V11.2443Z" fill="#057DFF"/>
<path d="M23.8968 23.8764H9.45969C9.27629 23.8764 9.12766 23.7291 9.12766 23.5473V18.6042C9.12766 14.478 12.5148 11.1213 16.6786 11.1213C20.8423 11.1213 24.2295 14.478 24.2295 18.6042V23.5473C24.2295 23.7291 24.0808 23.8764 23.8974 23.8764H23.8968ZM9.79173 23.2176H23.5647V18.6042C23.5647 14.8415 20.4755 11.7801 16.6779 11.7801C12.8803 11.7801 9.79173 14.8408 9.79173 18.6042V23.2176Z" fill="#057DFF"/>
<path d="M23.8974 24H9.4597C9.20812 24 9.0029 23.7966 9.0029 23.5473V18.6042C9.0029 14.4097 12.446 10.9977 16.6786 10.9977C20.9112 10.9977 24.3543 14.4097 24.3543 18.6042V23.5473C24.3543 23.7966 24.149 24 23.8974 24ZM16.6786 11.2449C12.5837 11.2449 9.25244 14.5462 9.25244 18.6042V23.5473C9.25244 23.6608 9.34584 23.7534 9.46039 23.7534H23.8981C24.0127 23.7534 24.1061 23.6615 24.1061 23.5473V18.6042C24.1061 14.5462 20.7748 11.2449 16.6799 11.2449H16.6786ZM23.5647 23.3412H9.79174C9.72288 23.3412 9.66697 23.2858 9.66697 23.2176V18.6042C9.66697 14.7732 12.8121 11.6564 16.6779 11.6564C20.5437 11.6564 23.6888 14.7732 23.6888 18.6042V23.2176C23.6888 23.2858 23.6329 23.3412 23.564 23.3412H23.5647Z" fill="#057DFF"/>
<path d="M5.50012 11.2662C3.13235 11.2662 1.20657 9.35726 1.20657 7.01131C1.20657 4.66536 3.13235 2.75693 5.50012 2.75693C7.86789 2.75693 9.79366 4.66585 9.79366 7.0118C9.79366 9.35775 7.86739 11.2667 5.50012 11.2667V11.2662ZM5.50012 3.23736C3.40013 3.23736 1.69138 4.93024 1.69138 7.01131C1.69138 9.09237 3.40013 10.7857 5.50012 10.7857C7.6001 10.7857 9.30836 9.09237 9.30836 7.01131C9.30836 4.93024 7.5996 3.23736 5.50012 3.23736Z" fill="#057DFF"/>
<path d="M5.50008 11.3564C3.08253 11.3564 1.11545 9.40707 1.11545 7.0113C1.11545 4.61553 3.08253 2.66666 5.50008 2.66666C7.91762 2.66666 9.88421 4.61553 9.88421 7.0113C9.88421 9.40707 7.91762 11.3564 5.50008 11.3564ZM5.50008 2.8467C3.18258 2.8467 1.29712 4.71517 1.29712 7.0113C1.29712 9.30743 3.18258 11.1759 5.49958 11.1759C7.81658 11.1759 9.70204 9.30743 9.70204 7.0113C9.70204 4.71517 7.81708 2.8467 5.50008 2.8467ZM5.50008 10.8755C3.34982 10.8755 1.60075 9.14219 1.60075 7.0113C1.60075 4.88041 3.34982 3.14759 5.50008 3.14759C7.65033 3.14759 9.39941 4.88091 9.39941 7.0118C9.39941 9.14268 7.65033 10.876 5.50008 10.876V10.8755Z" fill="#057DFF"/>
<path d="M10.8732 20.0975H0.333496C0.199603 20.0975 0.091095 19.99 0.091095 19.8573V16.2486C0.091095 13.2363 2.56389 10.7857 5.60361 10.7857C8.64334 10.7857 11.1161 13.2363 11.1161 16.2486V19.8573C11.1161 19.99 11.0076 20.0975 10.8737 20.0975H10.8732ZM0.575898 19.6166H10.6308V16.2486C10.6308 13.5016 8.37555 11.2667 5.60312 11.2667C2.83068 11.2667 0.575898 13.5011 0.575898 16.2486V19.6166Z" fill="#057DFF"/>
<path d="M10.8737 20.1878H0.333489C0.149821 20.1878 0 20.0393 0 19.8573V16.2486C0 13.1864 2.51361 10.6955 5.60361 10.6955C8.6936 10.6955 11.2072 13.1864 11.2072 16.2486V19.8573C11.2072 20.0393 11.0574 20.1878 10.8737 20.1878ZM5.60361 10.876C2.61415 10.876 0.182174 13.2861 0.182174 16.2486V19.8573C0.182174 19.9402 0.250365 20.0077 0.333986 20.0077H10.8742C10.9578 20.0077 11.026 19.9407 11.026 19.8573V16.2486C11.026 13.2861 8.59405 10.876 5.6046 10.876H5.60361ZM10.6308 19.7069H0.57589C0.525618 19.7069 0.484803 19.6664 0.484803 19.6166V16.2486C0.484803 13.4518 2.7809 11.1764 5.60311 11.1764C8.42532 11.1764 10.7214 13.4518 10.7214 16.2486V19.6166C10.7214 19.6664 10.6806 19.7069 10.6303 19.7069H10.6308Z" fill="#057DFF"/>
<path d="M28.0406 11.2662C25.6729 11.2662 23.7471 9.35726 23.7471 7.01131C23.7471 4.66536 25.6729 2.75693 28.0406 2.75693C30.4084 2.75693 32.3342 4.66585 32.3342 7.0118C32.3342 9.35775 30.4079 11.2667 28.0406 11.2667V11.2662ZM28.0406 3.23736C25.9407 3.23736 24.2319 4.93024 24.2319 7.01131C24.2319 9.09237 25.9407 10.7857 28.0406 10.7857C30.1406 10.7857 31.8489 9.09237 31.8489 7.01131C31.8489 4.93024 30.1401 3.23736 28.0406 3.23736Z" fill="#057DFF"/>
<path d="M28.0406 11.3564C25.6231 11.3564 23.656 9.40707 23.656 7.0113C23.656 4.61553 25.6231 2.66666 28.0406 2.66666C30.4582 2.66666 32.4248 4.61553 32.4248 7.0113C32.4248 9.40707 30.4582 11.3564 28.0406 11.3564ZM28.0406 2.8467C25.7231 2.8467 23.8377 4.71517 23.8377 7.0113C23.8377 9.30743 25.7231 11.1759 28.0401 11.1759C30.3571 11.1759 32.2426 9.30743 32.2426 7.0113C32.2426 4.71517 30.3576 2.8467 28.0406 2.8467ZM28.0406 10.8755C25.8904 10.8755 24.1413 9.14219 24.1413 7.0113C24.1413 4.88041 25.8904 3.14759 28.0406 3.14759C30.1909 3.14759 31.94 4.88091 31.94 7.0118C31.94 9.14268 30.1909 10.876 28.0406 10.876V10.8755Z" fill="#057DFF"/>
<path d="M33.4138 20.0975H22.874C22.7401 20.0975 22.6316 19.99 22.6316 19.8573V16.2486C22.6316 13.2363 25.1044 10.7857 28.1441 10.7857C31.1839 10.7857 33.6567 13.2363 33.6567 16.2486V19.8573C33.6567 19.99 33.5482 20.0975 33.4143 20.0975H33.4138ZM23.1164 19.6166H33.1714V16.2486C33.1714 13.5016 30.9161 11.2667 28.1436 11.2667C25.3712 11.2667 23.1164 13.5011 23.1164 16.2486V19.6166Z" fill="#057DFF"/>
<path d="M33.4143 20.1878H22.874C22.6904 20.1878 22.5406 20.0393 22.5406 19.8573V16.2486C22.5406 13.1864 25.0542 10.6955 28.1442 10.6955C31.2342 10.6955 33.7478 13.1864 33.7478 16.2486V19.8573C33.7478 20.0393 33.5979 20.1878 33.4143 20.1878ZM28.1442 10.876C25.1547 10.876 22.7227 13.2861 22.7227 16.2486V19.8573C22.7227 19.9402 22.7909 20.0077 22.8745 20.0077H33.4148C33.4984 20.0077 33.5666 19.9407 33.5666 19.8573V16.2486C33.5666 13.2861 31.1346 10.876 28.1452 10.876H28.1442ZM33.1714 19.7069H23.1164C23.0662 19.7069 23.0254 19.6664 23.0254 19.6166V16.2486C23.0254 13.4518 25.3215 11.1764 28.1437 11.1764C30.9659 11.1764 33.262 13.4518 33.262 16.2486V19.6166C33.262 19.6664 33.2212 19.7069 33.1709 19.7069H33.1714Z" fill="#057DFF"/>
</svg>
