<svg width="51" height="36" viewBox="0 0 51 36" fill="none" xmlns="http://www.w3.org/2000/svg">
<path d="M24.8051 17.6691C19.9402 17.6691 15.9834 13.7469 15.9834 8.92676C15.9834 4.10663 19.9402 0.185455 24.8051 0.185455C29.6701 0.185455 33.6269 4.10764 33.6269 8.92778C33.6269 13.7479 29.6691 17.6701 24.8051 17.6701V17.6691ZM24.8051 1.17259C20.4904 1.17259 16.9795 4.65087 16.9795 8.92676C16.9795 13.2027 20.4904 16.682 24.8051 16.682C29.1199 16.682 32.6298 13.2027 32.6298 8.92676C32.6298 4.65087 29.1189 1.17259 24.8051 1.17259Z" fill="#000623"/>
<path d="M24.8051 17.8546C19.8379 17.8546 15.7962 13.8493 15.7962 8.92678C15.7962 4.00428 19.8379 0 24.8051 0C29.7724 0 33.813 4.00428 33.813 8.92678C33.813 13.8493 29.7724 17.8546 24.8051 17.8546ZM24.8051 0.369922C20.0435 0.369922 16.1695 4.209 16.1695 8.92678C16.1695 13.6446 20.0435 17.4836 24.8041 17.4836C29.5648 17.4836 33.4387 13.6446 33.4387 8.92678C33.4387 4.209 29.5658 0.369922 24.8051 0.369922ZM24.8051 16.8664C20.3871 16.8664 16.7933 13.305 16.7933 8.92678C16.7933 4.54852 20.3871 0.988148 24.8051 0.988148C29.2232 0.988148 32.8169 4.54953 32.8169 8.92779C32.8169 13.306 29.2232 16.8674 24.8051 16.8674V16.8664Z" fill="#000623"/>
<path d="M35.8451 35.8145H14.1896C13.9144 35.8145 13.6915 35.5936 13.6915 35.321V27.9063C13.6915 21.717 18.7723 16.682 25.0179 16.682C31.2635 16.682 36.3442 21.717 36.3442 27.9063V35.321C36.3442 35.5936 36.1213 35.8145 35.8462 35.8145H35.8451ZM14.6876 34.8264H35.3471V27.9063C35.3471 22.2622 30.7133 17.6701 25.0168 17.6701C19.3204 17.6701 14.6876 22.2612 14.6876 27.9063V34.8264Z" fill="#000623"/>
<path d="M35.8462 36H14.1895C13.8122 36 13.5043 35.6949 13.5043 35.321V27.9063C13.5043 21.6146 18.6689 16.4965 25.0178 16.4965C31.3667 16.4965 36.5314 21.6146 36.5314 27.9063V35.321C36.5314 35.6949 36.2235 36 35.8462 36ZM25.0178 16.8674C18.8755 16.8674 13.8786 21.8193 13.8786 27.9063V35.321C13.8786 35.4912 14.0187 35.6301 14.1906 35.6301H35.8472C36.019 35.6301 36.1591 35.4922 36.1591 35.321V27.9063C36.1591 21.8193 31.1622 16.8674 25.0199 16.8674H25.0178ZM35.3471 35.0118H14.6876C14.5843 35.0118 14.5004 34.9287 14.5004 34.8264V27.9063C14.5004 22.1598 19.2181 17.4846 25.0168 17.4846C30.8155 17.4846 35.5332 22.1598 35.5332 27.9063V34.8264C35.5332 34.9287 35.4493 35.0118 35.3461 35.0118H35.3471Z" fill="#000623"/>
<path d="M8.25016 16.8992C4.6985 16.8992 1.80984 14.0359 1.80984 10.5169C1.80984 6.99802 4.6985 4.13538 8.25016 4.13538C11.8018 4.13538 14.6905 6.99876 14.6905 10.5177C14.6905 14.0366 11.8011 16.9 8.25016 16.9V16.8992ZM8.25016 4.85603C5.10018 4.85603 2.53705 7.39534 2.53705 10.5169C2.53705 13.6385 5.10018 16.1786 8.25016 16.1786C11.4001 16.1786 13.9625 13.6385 13.9625 10.5169C13.9625 7.39534 11.3994 4.85603 8.25016 4.85603Z" fill="#000623"/>
<path d="M8.25013 17.0347C4.62382 17.0347 1.67319 14.1106 1.67319 10.517C1.67319 6.92331 4.62382 4 8.25013 4C11.8764 4 14.8263 6.92331 14.8263 10.517C14.8263 14.1106 11.8764 17.0347 8.25013 17.0347ZM8.25013 4.27006C4.77388 4.27006 1.9457 7.07277 1.9457 10.517C1.9457 13.9612 4.77389 16.7639 8.24938 16.7639C11.7249 16.7639 14.5531 13.9612 14.5531 10.517C14.5531 7.07277 11.7256 4.27006 8.25013 4.27006ZM8.25013 16.3133C5.02475 16.3133 2.40114 13.7133 2.40114 10.517C2.40114 7.32063 5.02475 4.72139 8.25013 4.72139C11.4755 4.72139 14.0991 7.32137 14.0991 10.5177C14.0991 13.714 11.4755 16.314 8.25013 16.314V16.3133Z" fill="#000623"/>
<path d="M16.3098 30.1463H0.500229C0.29939 30.1463 0.136627 29.985 0.136627 29.786V24.3729C0.136627 19.8544 3.84582 16.1786 8.4054 16.1786C12.965 16.1786 16.6742 19.8544 16.6742 24.3729V29.786C16.6742 29.985 16.5114 30.1463 16.3106 30.1463H16.3098ZM0.863832 29.4249H15.9462V24.3729C15.9462 20.2525 12.5633 16.9 8.40466 16.9C4.246 16.9 0.863832 20.2517 0.863832 24.3729V29.4249Z" fill="#000623"/>
<path d="M16.3106 30.2817H0.500233C0.224732 30.2817 0 30.059 0 29.786V24.3729C0 19.7797 3.77041 16.0432 8.40541 16.0432C13.0404 16.0432 16.8108 19.7797 16.8108 24.3729V29.786C16.8108 30.059 16.5861 30.2817 16.3106 30.2817ZM8.40541 16.314C3.92123 16.314 0.273262 19.9291 0.273262 24.3729V29.786C0.273262 29.9103 0.375548 30.0116 0.50098 30.0116H16.3113C16.4368 30.0116 16.539 29.911 16.539 29.786V24.3729C16.539 19.9291 12.8911 16.314 8.4069 16.314H8.40541ZM15.9462 29.5603H0.863835C0.788427 29.5603 0.727204 29.4996 0.727204 29.4249V24.3729C0.727204 20.1777 4.17135 16.7646 8.40466 16.7646C12.638 16.7646 16.0821 20.1777 16.0821 24.3729V29.4249C16.0821 29.4996 16.0209 29.5603 15.9455 29.5603H15.9462Z" fill="#000623"/>
<path d="M42.061 16.8992C38.5093 16.8992 35.6207 14.0359 35.6207 10.5169C35.6207 6.99802 38.5093 4.13538 42.061 4.13538C45.6126 4.13538 48.5013 6.99876 48.5013 10.5177C48.5013 14.0366 45.6119 16.9 42.061 16.9V16.8992ZM42.061 4.85603C38.911 4.85603 36.3479 7.39534 36.3479 10.5169C36.3479 13.6385 38.911 16.1786 42.061 16.1786C45.211 16.1786 47.7733 13.6385 47.7733 10.5169C47.7733 7.39534 45.2102 4.85603 42.061 4.85603Z" fill="#000623"/>
<path d="M42.061 17.0347C38.4346 17.0347 35.484 14.1106 35.484 10.517C35.484 6.92331 38.4346 4 42.061 4C45.6873 4 48.6372 6.92331 48.6372 10.517C48.6372 14.1106 45.6873 17.0347 42.061 17.0347ZM42.061 4.27006C38.5847 4.27006 35.7565 7.07277 35.7565 10.517C35.7565 13.9612 38.5847 16.7639 42.0602 16.7639C45.5357 16.7639 48.3639 13.9612 48.3639 10.517C48.3639 7.07277 45.5365 4.27006 42.061 4.27006ZM42.061 16.3133C38.8356 16.3133 36.212 13.7133 36.212 10.517C36.212 7.32063 38.8356 4.72139 42.061 4.72139C45.2863 4.72139 47.9099 7.32137 47.9099 10.5177C47.9099 13.714 45.2863 16.314 42.061 16.314V16.3133Z" fill="#000623"/>
<path d="M50.1207 30.1463H34.3111C34.1102 30.1463 33.9474 29.985 33.9474 29.786V24.3729C33.9474 19.8544 37.6566 16.1786 42.2162 16.1786C46.7758 16.1786 50.485 19.8544 50.485 24.3729V29.786C50.485 29.985 50.3222 30.1463 50.1214 30.1463H50.1207ZM34.6747 29.4249H49.7571V24.3729C49.7571 20.2525 46.3741 16.9 42.2155 16.9C38.0568 16.9 34.6747 20.2517 34.6747 24.3729V29.4249Z" fill="#000623"/>
<path d="M50.1214 30.2817H34.3111C34.0356 30.2817 33.8108 30.059 33.8108 29.786V24.3729C33.8108 19.7797 37.5812 16.0432 42.2162 16.0432C46.8512 16.0432 50.6216 19.7797 50.6216 24.3729V29.786C50.6216 30.059 50.3969 30.2817 50.1214 30.2817ZM42.2162 16.314C37.7321 16.314 34.0841 19.9291 34.0841 24.3729V29.786C34.0841 29.9103 34.1864 30.0116 34.3118 30.0116H50.1222C50.2476 30.0116 50.3499 29.911 50.3499 29.786V24.3729C50.3499 19.9291 46.7019 16.314 42.2177 16.314H42.2162ZM49.7571 29.5603H34.6747C34.5992 29.5603 34.538 29.4996 34.538 29.4249V24.3729C34.538 20.1777 37.9822 16.7646 42.2155 16.7646C46.4488 16.7646 49.8929 20.1777 49.8929 24.3729V29.4249C49.8929 29.4996 49.8317 29.5603 49.7563 29.5603H49.7571Z" fill="#000623"/>
</svg>
