<svg width="30" height="39" viewBox="0 0 30 39" fill="none" xmlns="http://www.w3.org/2000/svg">
<path d="M29.282 0H0.720591C0.323375 0 0 0.325064 0 0.724355V38.2756C0 38.5444 0.147683 38.7901 0.384485 38.9155C0.491428 38.9718 0.606009 39 0.720591 39C0.863181 39 1.00323 38.9565 1.12545 38.8746L15 29.3965L28.8771 38.8746C29.091 39.023 29.3864 39.0384 29.6181 38.9155C29.8549 38.7901 30 38.5444 30 38.2756V0.724355C30 0.325064 29.6766 0 29.282 0ZM19.2726 17.1798L21.5311 24.1648C21.5744 24.303 21.5286 24.4489 21.4115 24.5334C21.2994 24.6153 21.139 24.6153 21.027 24.5334L15.1171 20.2154C15.0458 20.1642 14.9542 20.1642 14.8854 20.2154L8.97301 24.5334C8.85843 24.6178 8.70565 24.6178 8.58853 24.5334C8.47394 24.4489 8.42556 24.303 8.4714 24.1648L10.7299 17.1798C10.7554 17.0979 10.7274 17.0108 10.6586 16.9596L4.74622 12.6417C4.63164 12.5572 4.58326 12.4113 4.62655 12.2756C4.66984 12.14 4.79715 12.0478 4.93719 12.0478H12.245C12.329 12.0478 12.4054 11.9915 12.4308 11.9122L14.6894 4.92459C14.7352 4.78893 14.8574 4.69935 15 4.69935C15.1426 4.69935 15.2674 4.78893 15.3106 4.92459L17.5692 11.9122C17.5946 11.9915 17.671 12.0478 17.7576 12.0478H25.0628C25.2054 12.0478 25.3302 12.14 25.376 12.2756C25.4193 12.4113 25.3709 12.5572 25.2563 12.6417L19.3439 16.9596C19.2752 17.0108 19.2472 17.0979 19.2726 17.1798Z" fill="#000623"/>
</svg>
