<svg width="34" height="34" viewBox="0 0 34 34" fill="none" xmlns="http://www.w3.org/2000/svg">
<path d="M33.0002 34H17.148C16.5958 34 16.1482 33.5554 16.1482 33.0069V26.0943H9.18938C8.63716 26.0943 8.1896 25.6497 8.1896 25.1011V17.285H0.999788C0.447558 17.285 0 16.8404 0 16.2919V0.993146C0 0.444585 0.447558 0 0.999788 0H16.3972C16.917 0 17.3429 0.39439 17.3898 0.907097C17.3934 0.921438 17.397 0.93578 17.397 0.953707V8.36107H25.038C25.5902 8.36107 26.0378 8.80565 26.0378 9.35421V14.7287C26.045 14.7466 26.0522 14.7681 26.0522 14.7896V15.9871H33.0002C33.5524 15.9871 34 16.4317 34 16.9803V33.0104C34 33.559 33.5524 34.0036 33.0002 34.0036V34ZM0.999788 0.337024C0.635244 0.337024 0.342887 0.631024 0.342887 0.993146V16.2883C0.342887 16.6504 0.638854 16.9408 0.999788 16.9408H8.35924C8.45308 16.9408 8.52887 17.0161 8.52887 17.1094V25.0975C8.52887 25.4597 8.82484 25.7501 9.18578 25.7501H16.3178C16.4117 25.7501 16.4875 25.8254 16.4875 25.9186V33.0033C16.4875 33.3654 16.7834 33.6558 17.1444 33.6558H32.9966C33.3611 33.6558 33.6535 33.3618 33.6535 33.0033V16.9731C33.6535 16.611 33.3575 16.3206 32.9966 16.3206H25.879C25.7851 16.3206 25.7093 16.2453 25.7093 16.1521V14.847C25.7021 14.8291 25.6949 14.8075 25.6949 14.786V9.35063C25.6949 8.98851 25.3989 8.69809 25.038 8.69809H17.2238C17.1299 8.69809 17.0541 8.6228 17.0541 8.52958V0.993146C17.0541 0.993146 17.0541 0.971633 17.0505 0.960877C17.0325 0.613097 16.7473 0.340609 16.3972 0.340609H0.999788V0.337024ZM32.9208 33.0929H17.2274C17.1335 33.0929 17.0577 33.0176 17.0577 32.9244V25.9222C17.0577 25.829 17.1335 25.7537 17.2274 25.7537H25.0416C25.4062 25.7537 25.6985 25.4597 25.6985 25.1011V19.343C25.6985 19.3179 25.7021 19.2964 25.713 19.2785V17.0592C25.713 16.9659 25.7887 16.8906 25.8826 16.8906H32.9208C33.0147 16.8906 33.0904 16.9659 33.0904 17.0592V32.928C33.0904 33.0212 33.0147 33.0965 32.9208 33.0965V33.0929ZM17.4006 32.7559H32.7512V17.2241H26.0558V19.3394C26.0558 19.3645 26.0522 19.3861 26.0414 19.404V25.094C26.0414 25.6425 25.5938 26.0871 25.0416 26.0871H17.4006V32.7523V32.7559ZM8.40977 16.3887C8.40977 16.3887 8.39894 16.3887 8.39533 16.3887C8.3845 16.3887 8.35563 16.3815 8.3448 16.3779H1.07919C0.98535 16.3779 0.909554 16.3026 0.909554 16.2094V1.07202C0.909554 0.978804 0.98535 0.903511 1.07919 0.903511H16.3106C16.4045 0.903511 16.4803 0.978804 16.4803 1.07202V8.52599C16.4803 8.61921 16.4045 8.69451 16.3106 8.69451H9.18578C8.82123 8.69451 8.52887 8.98851 8.52887 9.35063V16.0875C8.56136 16.1198 8.57941 16.1628 8.57941 16.2094C8.57941 16.256 8.55775 16.3062 8.52527 16.3385C8.49278 16.3672 8.44947 16.3887 8.40616 16.3887H8.40977ZM1.25605 16.0409H8.19321V9.35421C8.19321 8.80565 8.64076 8.36107 9.19299 8.36107H16.1482V1.24412H1.25244V16.0409H1.25605Z" fill="#020623"/>
</svg>
