<svg width="24" height="24" viewBox="0 0 24 24" fill="none" xmlns="http://www.w3.org/2000/svg">
<g clip-path="url(#clip0_150_11)">
<path d="M23.2943 11.4015H18.2701V10.4372H18.2599V6.60044C18.2599 6.27902 17.9975 6.01835 17.6739 6.01835H12.158V0.673202H12.1554C12.1401 0.36697 11.8854 0.121478 11.572 0.121478H0.705738C0.382171 0.118947 0.119751 0.379624 0.119751 0.701042V11.4976C0.119751 11.819 0.382171 12.0797 0.705738 12.0797H5.90064V17.7184C5.90064 18.0399 6.16306 18.3005 6.48663 18.3005H11.521V23.3015C11.521 23.6229 11.7834 23.8836 12.107 23.8836H23.2968C23.6204 23.8836 23.8828 23.6229 23.8828 23.3015V11.9861C23.8828 11.6647 23.6204 11.404 23.2968 11.404L23.2943 11.4015ZM5.90064 6.60044V11.4419H5.93631V11.4495C5.93631 11.4495 5.91338 11.4419 5.90064 11.4419H0.761789V0.75672H11.5134V6.01835H6.48408C6.16052 6.01835 5.8981 6.27902 5.8981 6.60044H5.90064ZM23.2382 23.2407H12.1605V18.298H17.6764C18 18.298 18.2624 18.0373 18.2624 17.7159V13.6514H18.2726V12.0367H23.2408V23.2382L23.2382 23.2407Z" fill="#057DFF"/>
<path d="M23.2943 24H12.1045C11.7146 24 11.3987 23.6862 11.3987 23.299V18.4195H6.48662C6.09682 18.4195 5.78089 18.1057 5.78089 17.7184V12.2012H0.705732C0.315924 12.2012 0 11.8874 0 11.5002V0.701044C0 0.313825 0.315924 0 0.705732 0H11.5745C11.9414 0 12.242 0.278393 12.2752 0.640304C12.2777 0.650427 12.2803 0.66055 12.2803 0.673205V5.90193H17.6739C18.0637 5.90193 18.3796 6.21575 18.3796 6.60297V10.3967C18.3847 10.4094 18.3898 10.4245 18.3898 10.4397V11.285H23.2943C23.6841 11.285 24 11.5989 24 11.9861V23.3015C24 23.6887 23.6841 24.0025 23.2943 24.0025V24ZM0.705732 0.237899C0.448408 0.237899 0.242038 0.445429 0.242038 0.701044V11.4976C0.242038 11.7532 0.450955 11.9582 0.705732 11.9582H5.90064C5.96688 11.9582 6.02038 12.0114 6.02038 12.0772V17.7159C6.02038 17.9715 6.2293 18.1765 6.48408 18.1765H11.5185C11.5847 18.1765 11.6382 18.2297 11.6382 18.2955V23.2964C11.6382 23.552 11.8471 23.757 12.1019 23.757H23.2917C23.549 23.757 23.7554 23.5495 23.7554 23.2964V11.981C23.7554 11.7254 23.5465 11.5204 23.2917 11.5204H18.2675C18.2013 11.5204 18.1478 11.4673 18.1478 11.4015V10.4802C18.1427 10.4676 18.1376 10.4524 18.1376 10.4372V6.60044C18.1376 6.34483 17.9287 6.13983 17.6739 6.13983H12.158C12.0917 6.13983 12.0382 6.08668 12.0382 6.02088V0.701044C12.0382 0.701044 12.0382 0.685859 12.0357 0.678266C12.0229 0.432774 11.8217 0.24043 11.5745 0.24043H0.705732V0.237899ZM23.2382 23.3597H12.1605C12.0943 23.3597 12.0408 23.3065 12.0408 23.2407V18.298C12.0408 18.2322 12.0943 18.1791 12.1605 18.1791H17.6764C17.9338 18.1791 18.1401 17.9715 18.1401 17.7184V13.6539C18.1401 13.6362 18.1427 13.621 18.1503 13.6084V12.0418C18.1503 11.976 18.2038 11.9228 18.2701 11.9228H23.2382C23.3045 11.9228 23.358 11.976 23.358 12.0418V23.2433C23.358 23.3091 23.3045 23.3622 23.2382 23.3622V23.3597ZM12.2828 23.1218H23.1185V12.1582H18.3924V13.6514C18.3924 13.6691 18.3898 13.6843 18.3822 13.6969V17.7134C18.3822 18.1006 18.0662 18.4144 17.6764 18.4144H12.2828V23.1193V23.1218ZM5.93631 11.5685C5.93631 11.5685 5.92866 11.5685 5.92611 11.5685C5.91847 11.5685 5.89809 11.5634 5.89045 11.5609H0.761783C0.695541 11.5609 0.642038 11.5077 0.642038 11.4419V0.756723C0.642038 0.690921 0.695541 0.637773 0.761783 0.637773H11.5134C11.5796 0.637773 11.6331 0.690921 11.6331 0.756723V6.01835C11.6331 6.08415 11.5796 6.1373 11.5134 6.1373H6.48408C6.22675 6.1373 6.02038 6.34483 6.02038 6.60044V11.3559C6.04331 11.3787 6.05605 11.409 6.05605 11.4419C6.05605 11.4748 6.04076 11.5103 6.01783 11.5331C5.9949 11.5533 5.96433 11.5685 5.93376 11.5685H5.93631ZM0.886624 11.323H5.78344V6.60297C5.78344 6.21575 6.09936 5.90193 6.48917 5.90193H11.3987V0.878203H0.884076V11.323H0.886624Z" fill="#057DFF"/>
</g>
<defs>
<clipPath id="clip0_150_11">
<rect width="24" height="24" fill="white"/>
</clipPath>
</defs>
</svg>
