<?xml version="1.0" encoding="UTF-8"?>
<!DOCTYPE svg PUBLIC "-//W3C//DTD SVG 1.1//EN" "http://www.w3.org/Graphics/SVG/1.1/DTD/svg11.dtd">
<!-- Creator: CorelDRAW -->
<svg xmlns="http://www.w3.org/2000/svg" xml:space="preserve" width="67.7332mm" height="59.2666mm" version="1.1" style="shape-rendering:geometricPrecision; text-rendering:geometricPrecision; image-rendering:optimizeQuality; fill-rule:evenodd; clip-rule:evenodd"
viewBox="0 0 6773.32 5926.66"
 xmlns:xlink="http://www.w3.org/1999/xlink"
 xmlns:xodm="http://www.corel.com/coreldraw/odm/2003">
 <defs>
  <style type="text/css">
   <![CDATA[
    .fil1 {fill:#0068FF;fill-rule:nonzero}
    .fil0 {fill:#FF4E00;fill-rule:nonzero}
   ]]>
  </style>
 </defs>
 <g id="Camada_x0020_1">
  <metadata id="CorelCorpID_0Corel-Layer"/>
  <g id="_1626399164272">
   <path class="fil0" d="M6561.67 1300.38l0 468.88c-131.33,45.09 -271.3,71.68 -416.84,76.69 0,0 -33.14,-0.08 -49.86,-0.08 -187.33,0 -362.7,51.16 -512.94,140.37 20.21,78.31 36.21,157.43 48.01,237.28 34.19,231.44 32.33,463.06 -5.66,688.45 -39.92,237.11 -119.52,460.48 -232.9,659.61 181.43,177.38 429.69,286.8 703.49,286.8 16.72,0 33.37,-0.4 49.86,-1.21l0 430.98c-16.49,0.49 -33.14,0.81 -49.86,0.81 -369.33,0 -706.08,-139.32 -960.64,-368.27 -44.61,47.43 -91.73,92.21 -141.27,134.24 -243.65,206.64 -535.71,356.62 -869.63,446.81l0 -442.05c225.71,-74.84 427.17,-185.31 595.43,-328.03 51.4,-43.63 99.16,-90.91 143.04,-141.42 -129.38,-215.69 -203.81,-468.16 -203.81,-738.07 0,-396.23 160.41,-754.96 419.83,-1014.94l-954.49 -0.09 0 -423.87 2021.4 0c149.91,-7.27 291.17,-47.27 416.84,-112.89z"/>
   <path class="fil0" d="M1672.24 3133.09c-87.26,-239.48 -118.56,-506.13 -90.01,-775.41 82.59,146.04 129.72,314.78 129.72,494.48 0,97.49 -13.84,191.74 -39.71,280.93zm979.99 -1295.95l0 -423.86 -1996.38 0c-160.88,-7.85 -311.85,-53.29 -444.18,-127.78l0 474.1c139.25,50.99 288.6,81.04 444.18,86.33 0,0 33.16,-0.06 49.87,-0.06 187.37,0 362.71,51.17 512.93,140.37 -20.2,78.29 -36.22,157.45 -48,237.24 -34.16,231.5 -32.29,463.13 5.67,688.46 39.89,237.11 119.5,460.51 232.87,659.66 -181.38,177.4 -429.65,286.79 -703.47,286.79 -17.4,0 -34.67,-0.44 -51.81,-1.3 0.63,0.06 1.31,0.06 1.94,0.12l0 430.9c16.52,0.56 33.16,0.87 49.87,0.87 369.38,0 706.09,-139.37 960.66,-368.32 44.57,47.44 91.76,92.26 141.25,134.27 237.54,201.46 521.09,349.06 844.6,439.94l0 -443.68c-215.54,-74.61 -408.46,-182.13 -570.4,-319.52 -51.43,-43.63 -99.18,-90.94 -143.06,-141.43 129.4,-215.67 203.83,-468.18 203.83,-738.08 0,-396.25 -160.38,-754.97 -419.87,-1014.95l929.5 -0.07z"/>
   <polygon class="fil1" points="4446.56,962.37 2326.78,962.37 2326.78,456.24 4446.56,456.24 "/>
   <path class="fil1" d="M2330.93 5470.4l0 -702.48c66.26,18.57 135.67,35.74 206.4,51.07 262.43,56.86 532.53,85.69 802.77,85.69 16.85,0 31.33,-0.1 43.28,-0.19 8.08,-0.08 14.69,-0.08 20.12,-0.08 5.43,0 12.03,0 19.72,0.08 12.32,0.09 26.82,0.19 43.68,0.19 270.23,0 540.33,-28.83 802.77,-85.69 60.17,-13.04 118.25,-27.14 172.74,-41.91l0 693.32 -2111.48 0z"/>
  </g>
 </g>
</svg>
