<?xml version="1.0" encoding="UTF-8"?>
<!DOCTYPE svg PUBLIC "-//W3C//DTD SVG 1.1//EN" "http://www.w3.org/Graphics/SVG/1.1/DTD/svg11.dtd">
<!-- Creator: CorelDRAW -->
<svg xmlns="http://www.w3.org/2000/svg" xml:space="preserve" width="101.6mm" height="32.2756mm" version="1.1" style="shape-rendering:geometricPrecision; text-rendering:geometricPrecision; image-rendering:optimizeQuality; fill-rule:evenodd; clip-rule:evenodd"
viewBox="0 0 10159.98 3227.56"
 xmlns:xlink="http://www.w3.org/1999/xlink"
 xmlns:xodm="http://www.corel.com/coreldraw/odm/2003">
 <defs>
  <style type="text/css">
   <![CDATA[
    .fil0 {fill:#FEFEFE}
    .fil1 {fill:#FEFEFE}
   ]]>
  </style>
 </defs>
 <g id="Layer_x0020_1">
  <metadata id="CorelCorpID_0Corel-Layer"/>
  <g id="_2924166462064">
   <path class="fil0" d="M256.56 2490.49c-162.33,-251.76 -256.57,-551.54 -256.57,-873.37 0,-891.28 722.52,-1613.81 1613.81,-1613.81 891.28,0 1613.8,722.53 1613.8,1613.81 0,201.36 -28.75,380.53 -90.45,548.78 -74.58,203.43 -192.55,402.47 -378.07,521.99 -133.53,86.03 -287.97,125.93 -447.19,124.17l0 -370.61 -189.57 0 -149.71 -1529.74 0 -310.57c0,-207.7 -154.65,-356.84 -358.81,-356.84 -204.17,0 -358.82,149.14 -358.82,356.84l0 367.31 -11.36 111.72 -125.41 1232.98c-204.08,-51.45 -415.54,-29.27 -610.97,45.77 -80.76,31.03 -177.58,78.66 -250.68,131.57zm2400.4 357.86c-281.33,238.59 -645.39,382.58 -1043.16,382.58 -531.41,0 -1002.78,-256.88 -1296.83,-653.22 65.47,-47.84 155.73,-91.88 228.3,-119.77 180.89,-69.51 376.7,-89.33 565,-37.17 252.68,69.98 421.09,214.66 640.96,339.86 337.14,191.95 598.12,182.2 905.73,87.72zm-1228.1 -408.46c-66.96,-37.13 -137.13,-70.66 -215.5,-97.99l133.36 -1324.59 521.48 0 137.03 1422.58 -576.37 0zm767.99 363.78c-133.52,-17.86 -267.65,-63.78 -393.13,-135.22 -70.26,-40 -134.71,-81.28 -197.93,-121.4l591.06 0 0 256.62zm-845.71 -2200.28l506.43 0 0 -2.25c0,-334.99 -506.43,-334.99 -506.43,0l0 2.25zm208.6 106.06l89.23 0 0 197.07 -89.23 0 0 -197.07zm208.6 0l89.23 0 0 197.07 -89.23 0 0 -197.07zm-417.2 0l89.23 0 0 197.07 -89.23 0 0 -197.07zm97.81 560.56l96.41 0 0 237.26 -96.41 0 0 -237.26zm214.41 0l96.4 0 0 237.26 -96.4 0 0 -237.26z"/>
   <path class="fil1" d="M8837.88 2840.68l502.74 -1391.54 311.28 0 508.09 1406.27 -401.1 0 -79.59 -268.32 -351.56 0 -92.56 268.32 -388.66 0 -13.96 0 -424.31 0 -258.79 -438.16 -131.79 0 0 438.16 -395.57 0 0 -510.57 0 -895.7 675.99 0c505.78,0 590.37,765.96 245.4,889.28l294.39 502.26zm-4838.4 -1670.46l0 -282.52 0 -198.81 0 -102.69 0 -198.81 228.58 0 311.06 0 0 198.81 -311.06 0 0 102.69 259.16 0 0 198.81 -259.16 0 0 282.52 -228.58 0zm5156.44 -791.39l364.13 0c200.27,0 364.12,163.84 364.12,364.12l0 63.15c0,73.27 -21.96,141.65 -59.58,198.93l-402.56 0 -57.02 165.19 -209.09 0 0 -791.39zm234.84 194.81l88.84 0c229.57,0 229.57,401.77 0,401.77l-88.84 0 0 -401.77zm-1034.6 588.92l210.11 0 0 -372.65 311.55 380.31 180.21 0 0 -790.51 -233.46 0 0 367.9 -298.18 -368.78 -170.23 0 0 783.73zm-2166.21 0l210.12 0 0 -372.65 311.55 380.31 180.2 0 0 -790.51 -233.45 0 0 367.9 -298.19 -368.78 -170.23 0 0 783.73zm-482.49 -775.19c216.17,0 391.42,175.25 391.42,391.42 0,216.18 -175.25,391.43 -391.42,391.43 -216.18,0 -391.43,-175.25 -391.43,-391.43 0,-216.17 175.25,-391.42 391.43,-391.42zm0 194.46c94.13,0 170.43,88.18 170.43,196.96 0,108.78 -76.3,196.97 -170.43,196.97 -94.13,0 -170.44,-88.19 -170.44,-196.97 0,-108.78 76.31,-196.96 170.44,-196.96zm-1092.16 -194.46l376.31 0c281.56,0 328.65,426.4 136.61,495.05l168.69 287.8 -243.98 0 -144.05 -243.93 -73.38 0 0 243.93 -220.2 0 0 -284.24 0 -498.61zm220.2 198.25l111.04 0c42.83,0 77.85,35.02 77.85,77.86 0,42.82 -35.02,77.85 -77.85,77.85l-111.04 0 0 -155.71zm2862.92 -206.79l221.09 0 319.12 0 0 194.09 -319.12 0 0 91.79 291.3 0 0 194.09 -291.3 0 0 117.33 338.76 0 0 194.09 -338.76 0 -221.09 0 0 -194.09 0 -117.33 0 -194.09 0 -91.79 0 -194.09zm-740.65 0l219.28 0 225.42 0 219.28 0 0 186.21 -219.28 0 0 605.18 -225.42 0 0 -605.18 -219.28 0 0 -186.21zm-2525.6 1044.54c242.72,0 457.22,120.81 586.71,305.56l-296.72 224.99c-58.13,-109.71 -166.23,-183.45 -290.01,-183.45 -185.25,0 -335.43,165.17 -335.43,368.92 0,203.75 150.18,368.93 335.43,368.93 112.55,0 212.15,-60.97 272.99,-154.52l316.65 191.85c-129.17,187.12 -345.06,309.76 -589.62,309.76 -395.45,0 -716.04,-320.57 -716.04,-716.02 0,-395.44 320.59,-716.02 716.04,-716.02zm3585.5 381.9l199.46 0c76.93,0 139.85,62.92 139.85,139.85l0 0.01c0,76.93 -62.92,139.85 -139.85,139.85l-199.46 0 0 -279.71zm-1827.72 1050.14l508.06 -1406.27 311.28 0 508.09 1406.27 -401.1 0 -79.59 -268.32 -351.56 0 -92.56 268.32 -402.62 0zm545.58 -543.59l236.29 0 -118.15 -394.63 -118.14 394.63zm-1577.5 -862.68l392.87 0 567.07 0 0 344.88 -567.07 0 0 163.11 517.62 0 0 344.89 -517.62 0 0 208.5 601.97 0 0 344.89 -601.97 0 -392.87 0 0 -344.89 0 -208.5 0 -344.89 0 -163.11 0 -344.88zm4217.67 -117.55l103.22 -273.75 319.76 0 -185.13 341.07 -237.85 -67.32zm2.44 980.23l236.28 0 -118.15 -394.63 -118.13 394.63z"/>
  </g>
 </g>
</svg>
