<?xml version="1.0" encoding="UTF-8"?>
<!DOCTYPE svg PUBLIC "-//W3C//DTD SVG 1.1//EN" "http://www.w3.org/Graphics/SVG/1.1/DTD/svg11.dtd">
<!-- Creator: CorelDRAW -->
<svg xmlns="http://www.w3.org/2000/svg" xml:space="preserve" width="64.9277mm" height="72.7714mm" version="1.1" style="shape-rendering:geometricPrecision; text-rendering:geometricPrecision; image-rendering:optimizeQuality; fill-rule:evenodd; clip-rule:evenodd"
viewBox="0 0 366.78 411.09"
 xmlns:xlink="http://www.w3.org/1999/xlink"
 xmlns:xodm="http://www.corel.com/coreldraw/odm/2003">
 <defs>
  <style type="text/css">
   <![CDATA[
    .fil0 {fill:#51CAFD}
    .fil1 {fill:#51CAFD;fill-rule:nonzero}
    .fil2 {fill:white;fill-rule:nonzero}
   ]]>
  </style>
 </defs>
 <g id="Camada_x0020_1">
  <metadata id="CorelCorpID_0Corel-Layer"/>
  <g id="_1761895952384">
   <path class="fil0" d="M-0 183.01c0,-101.07 82.06,-183.01 183.28,-183.01 101.22,0 183.28,81.94 183.28,183.01l-52.22 0c0.33,-3.1 0.53,-6.23 0.66,-9.42 0.62,-15.86 -0.66,-31.59 -2.91,-44.39 -4.28,-23.6 -13.3,-45.13 -25.32,-64.06 -15.61,-23.37 -37.85,-42.87 -61.87,-53.18 -14.85,-6.15 -30.16,-9.12 -45.9,-8.89l0 -0c-5.25,0.07 -10.54,0.51 -15.87,1.29 -6.61,1 -13.08,2.53 -19.64,4.47 -1.19,-0.86 -3.41,-2.17 -6.05,-2.17 -3.93,0 -4.6,5.58 -4.6,5.58l0.97 0.97c-0.56,0.6 -1.15,1.17 -1.71,1.7l-0 0c-2.3,2.19 -4.09,3.9 -0.82,5.98 3.32,2.11 6.87,3.45 10.31,4.75 1.56,0.59 3.11,1.17 4.6,1.81 5.67,2.86 8.73,5.61 10.21,9.04 1.51,3.49 1.38,7.69 0.76,13.42 0.41,2.65 -1.77,7.08 -4.55,12.73 -2.91,5.91 -6.47,13.15 -8.42,21.09 -0.92,3.73 -1.41,7.76 -1.47,11.81 -0.13,8.28 1.49,16.6 4.82,22.31 3.42,5.66 7.56,10.27 11.75,14.95 1.66,1.85 3.32,3.71 4.96,5.64 3.05,4.32 4.28,7.59 5.56,10.98l0 0 0 0 0 0c0.44,1.17 0.89,2.35 1.41,3.6 2.1,7.06 0.67,13.38 -0.77,19.7 -0.41,1.81 -0.82,3.62 -1.15,5.44 -0.08,1.75 0.02,3.35 0.28,4.84l-169.58 0 0 0zm227.14 0l-15.98 0c6.43,-8.27 13.36,-15.27 19.66,-18.83 1.8,0.2 0.77,2.34 -0.22,4.39l0 0c-0.5,1.03 -0.99,2.04 -1.1,2.77 -0.92,3.87 -1.7,7.76 -2.36,11.68zm22.86 0l-6.58 0c1.95,-6.2 3.81,-12.4 5.38,-18.57 0.95,-6.38 -0.35,-9.69 -1.74,-13.23 -0.3,-0.77 -0.61,-1.55 -0.9,-2.38 -0.02,0.05 -0.12,-0.11 -0.3,-0.41 -0.58,-0.98 -2.01,-3.39 -4.41,-4.08 -8.33,-2.37 -22.7,4.13 -26.24,5.74l-0.28 0.12c-0.11,0.05 -0.21,0.09 -0.29,0.13l-15.32 7.47c-2.91,-2.31 -3.93,-5.51 -4.54,-8.36 -0.89,-4.19 -4.54,-10.25 -5.68,-11.02 -3.71,-4.15 -6.83,-8.37 -9.24,-11.95 -1.7,-2.54 -2.77,-4.79 -3.83,-7.02l0 0c-0.64,-1.35 -1.28,-2.69 -2.05,-4.09 0.22,-0.44 0.42,-0.86 0.62,-1.26 3.28,-6.65 3.74,-7.58 -2.59,-14.8 -0.33,-0.37 -0.63,-0.71 -0.94,-1.05l-0 -0 -0 -0c-0.78,-0.86 -1.58,-1.75 -2.82,-3.31 10.03,1.04 18.47,-3.93 19.39,-11.82 0.99,-8.5 -7.11,-17.16 -18.12,-19.4 0.75,-1.68 1.45,-3.37 2.05,-5.06 2.08,-5.82 4,-12.03 4.25,-16.88 0.47,-10.25 -3.6,-18.51 -10.43,-23.31 -5.42,-3.65 -9.67,-6.05 -15.22,-7.61 8.07,-2.48 16.57,-3.81 25.08,-4.17 0.79,-0.02 1.58,-0.03 2.36,-0.03l0 -0.01c39.68,0.06 74.06,23.17 96.52,49.98 3.28,45.1 -5.71,88.33 -24.13,126.4l0 0zm5.31 0l54.08 0c0.99,-9.52 0.95,-19.45 0.76,-29.34 -1.43,-16.38 -4.99,-32.96 -9.18,-47.93 -2.83,-9.6 -6.99,-19.3 -12.37,-28.7 -2.75,-4.68 -5.89,-9.4 -9.4,-14.05 0.08,1.63 0.14,3.26 0.18,4.89 0.11,4.16 0.13,8.32 0.04,12.48 -0.09,4.16 -0.28,8.31 -0.57,12.46 -0.29,4.15 -0.69,8.29 -1.19,12.42 -1,8.27 -2.39,16.46 -4.19,24.59 -0.9,4.06 -1.9,8.1 -3,12.11 -1.1,4.01 -2.29,8 -3.59,11.95 -1.29,3.95 -2.68,7.87 -4.17,11.76 -2.25,5.88 -4.72,11.67 -7.39,17.36l0 0zm-104.34 -164.72c-4.96,-1.6 -8.39,-2.32 -10.18,-2.26 -0.81,0.03 -1.28,0.21 -1.4,0.55l0.74 0.21 -1.33 0.31 0.03 0.01 0.01 0 0.04 0.01 0.03 0.01c0.06,0.02 0.12,0.04 0.18,0.06 0.34,0.21 0.47,0.47 0.59,0.71 0.17,0.33 0.33,0.65 0.99,0.84 1.06,0.31 2.24,0.63 3.45,0.97l0 0 0 0 0 0 0 0c3.77,1.03 7.93,2.16 10.25,3.49 3.3,1.94 6.21,5.31 8.36,8.71 2.1,3.33 2.86,7.7 2.87,12.05 0.78,-3.58 1.17,-6.48 1.22,-8.1 0.04,-4.31 -2,-7.89 -5.11,-10.85 -2.91,-2.76 -6.76,-4.99 -10.75,-6.73zm-65.06 57.58c-15.06,0 -27.32,12.26 -27.32,27.32 0,15.06 12.26,27.33 27.32,27.33 15.06,0 27.34,-12.27 27.34,-27.33 0,-15.06 -12.27,-27.32 -27.34,-27.32zm-35.52 24.58c0.36,0 0.71,0.07 1.05,0.21 0.33,0.14 0.63,0.34 0.89,0.59 0.26,0.26 0.45,0.55 0.59,0.89 0.14,0.33 0.21,0.68 0.21,1.05 0,0.36 -0.06,0.71 -0.2,1.05 -0.14,0.33 -0.33,0.63 -0.59,0.89 -0.26,0.26 -0.55,0.45 -0.88,0.59 -0.33,0.14 -0.68,0.21 -1.04,0.21l-5.47 0c-0.36,-0 -0.71,-0.07 -1.05,-0.21 -0.33,-0.14 -0.63,-0.34 -0.89,-0.59 -0.26,-0.26 -0.45,-0.55 -0.59,-0.89 -0.14,-0.33 -0.21,-0.68 -0.21,-1.05 0,-0.36 0.07,-0.71 0.21,-1.05 0.14,-0.34 0.34,-0.63 0.59,-0.89 0.26,-0.26 0.55,-0.45 0.89,-0.59 0.33,-0.14 0.68,-0.21 1.05,-0.21l5.46 0zm15.4 -26.65c0.51,0.88 1.42,1.36 2.37,1.36 0.46,0 0.94,-0.11 1.36,-0.36 0.31,-0.18 0.58,-0.42 0.8,-0.71 0.22,-0.29 0.38,-0.61 0.47,-0.96 0.09,-0.35 0.12,-0.7 0.07,-1.06 -0.05,-0.36 -0.16,-0.7 -0.34,-1.01l-2.74 -4.73c-0.75,-1.3 -2.43,-1.75 -3.73,-1 -1.3,0.75 -1.75,2.43 -1,3.73l2.74 4.73zm-14 6.52l4.73 2.73c1.3,0.75 1.75,2.43 1,3.73 -0.18,0.31 -0.42,0.58 -0.71,0.8 -0.29,0.22 -0.61,0.38 -0.96,0.47 -0.35,0.09 -0.7,0.12 -1.06,0.07 -0.36,-0.05 -0.7,-0.16 -1.01,-0.34l-4.73 -2.74c-1.3,-0.75 -1.75,-2.43 -1,-3.73 0.18,-0.31 0.42,-0.58 0.7,-0.8 0.29,-0.22 0.61,-0.38 0.96,-0.47 0.35,-0.09 0.7,-0.12 1.06,-0.07 0.36,0.05 0.7,0.16 1.01,0.34l0 0zm2 38.26l-4.73 2.74c-1.3,0.75 -1.75,2.43 -1,3.73 0.51,0.88 1.42,1.36 2.37,1.36 0.46,0 0.94,-0.12 1.36,-0.36l4.73 -2.74c1.3,-0.75 1.75,-2.43 1,-3.73 -0.18,-0.31 -0.42,-0.58 -0.7,-0.8 -0.29,-0.22 -0.61,-0.38 -0.96,-0.47 -0.35,-0.09 -0.7,-0.12 -1.06,-0.07 -0.36,0.05 -0.7,0.16 -1.01,0.34zm29.39 20.13c0,-0.36 0.07,-0.71 0.21,-1.05 0.14,-0.34 0.34,-0.63 0.59,-0.89 0.26,-0.26 0.55,-0.45 0.89,-0.59 0.33,-0.14 0.68,-0.21 1.05,-0.21 0.36,0 0.71,0.07 1.05,0.21 0.34,0.14 0.63,0.34 0.89,0.59 0.26,0.26 0.45,0.55 0.59,0.89 0.14,0.33 0.21,0.68 0.21,1.05l0 5.47c-0,0.36 -0.07,0.71 -0.21,1.05 -0.14,0.33 -0.34,0.63 -0.59,0.89 -0.26,0.26 -0.55,0.45 -0.89,0.59 -0.33,0.14 -0.68,0.21 -1.05,0.21 -0.36,-0 -0.71,-0.07 -1.05,-0.21 -0.33,-0.14 -0.63,-0.34 -0.89,-0.59 -0.26,-0.26 -0.45,-0.55 -0.59,-0.89 -0.14,-0.33 -0.21,-0.68 -0.21,-1.05l0 -5.47zm43.73 -38.26l-5.47 0c-1.5,0 -2.73,1.23 -2.73,2.74 0,1.5 1.23,2.74 2.73,2.74l5.47 0c0.36,-0 0.71,-0.07 1.05,-0.21 0.33,-0.14 0.63,-0.34 0.89,-0.59 0.26,-0.26 0.45,-0.55 0.59,-0.89 0.14,-0.33 0.21,-0.68 0.21,-1.05 -0,-0.36 -0.07,-0.71 -0.21,-1.05 -0.14,-0.33 -0.34,-0.63 -0.59,-0.89 -0.26,-0.26 -0.55,-0.45 -0.89,-0.59 -0.33,-0.14 -0.68,-0.21 -1.05,-0.21zm-61.12 32.14c0.75,-1.3 2.43,-1.75 3.73,-1 0.32,0.18 0.58,0.41 0.81,0.7 0.22,0.29 0.38,0.61 0.48,0.96 0.09,0.35 0.12,0.71 0.07,1.07 -0.05,0.36 -0.16,0.7 -0.34,1.01l-2.74 4.73c-0.25,0.42 -0.58,0.75 -1.01,1 -0.42,0.24 -0.88,0.36 -1.37,0.36 -0.49,0 -0.94,-0.12 -1.36,-0.36 -1.3,-0.75 -1.75,-2.43 -1,-3.73l2.72 -4.73zm40.26 0c-0.75,-1.3 -2.43,-1.75 -3.73,-1 -1.3,0.75 -1.75,2.43 -1,3.73l2.74 4.73c0.51,0.88 1.42,1.36 2.37,1.36 0.46,0 0.94,-0.12 1.36,-0.36 1.3,-0.75 1.75,-2.43 1,-3.73l-2.74 -4.73zm12.01 -14.01l4.73 2.74c0.31,0.18 0.58,0.42 0.8,0.7 0.22,0.29 0.38,0.61 0.47,0.96 0.09,0.35 0.12,0.7 0.07,1.06 -0.05,0.36 -0.16,0.7 -0.34,1.01 -0.25,0.42 -0.58,0.75 -1.01,1 -0.42,0.24 -0.88,0.36 -1.37,0.36 -0.46,0 -0.92,-0.12 -1.36,-0.36l-4.73 -2.74c-1.3,-0.75 -1.75,-2.43 -1,-3.73 0.18,-0.31 0.42,-0.58 0.71,-0.8 0.29,-0.22 0.61,-0.38 0.96,-0.47 0.35,-0.09 0.7,-0.12 1.06,-0.07 0.36,0.05 0.7,0.16 1.01,0.34zm-1.38 -30.41c0.46,0 0.94,-0.11 1.36,-0.36l4.73 -2.74c1.3,-0.75 1.75,-2.43 1,-3.73 -0.75,-1.3 -2.43,-1.75 -3.73,-1l-4.72 2.72c-1.3,0.75 -1.75,2.43 -1,3.73 0.24,0.42 0.57,0.76 0.99,1 0.42,0.25 0.88,0.37 1.36,0.37l0 0zm-13.01 -13.01c-0.49,0 -0.94,-0.12 -1.36,-0.36 -1.3,-0.75 -1.75,-2.43 -1,-3.73l2.74 -4.73c0.75,-1.3 2.43,-1.75 3.73,-1 0.31,0.18 0.58,0.42 0.8,0.71 0.22,0.29 0.38,0.61 0.47,0.96 0.09,0.35 0.12,0.7 0.07,1.06 -0.05,0.36 -0.16,0.69 -0.34,1.01l-2.74 4.73c-0.25,0.42 -0.58,0.75 -1.01,0.99 -0.42,0.24 -0.88,0.36 -1.37,0.36l0 0zm-17.76 -4.76c1.51,0 2.74,-1.23 2.74,-2.73l0 -5.46c0,-0.36 -0.07,-0.71 -0.21,-1.05 -0.14,-0.33 -0.34,-0.63 -0.59,-0.89 -0.26,-0.26 -0.55,-0.45 -0.89,-0.59 -0.33,-0.14 -0.68,-0.21 -1.05,-0.21 -0.36,-0 -0.71,0.07 -1.05,0.21 -0.33,0.14 -0.63,0.34 -0.89,0.59 -0.26,0.26 -0.45,0.55 -0.59,0.89 -0.14,0.34 -0.21,0.68 -0.21,1.05l0 5.47c0,1.5 1.23,2.72 2.74,2.72z"/>
   <path class="fil1" d="M44.18 375.05l-7.01 0 -1.37 3.24 -2.68 0 6.3 -14 2.56 0 6.32 14 -2.72 0 -1.4 -3.24zm-0.86 -2.04l-2.64 -6.12 -2.62 6.12 5.26 0zm22.34 5.28l-0.03 -9.28 -4.6 7.67 -1.16 0 -4.6 -7.55 0 9.16 -2.48 0 0 -14 2.14 0 5.56 9.29 5.46 -9.29 2.14 0 0.02 14 -2.45 0 0 0zm14.71 -14c1.21,0 2.27,0.2 3.17,0.6 0.9,0.4 1.59,0.97 2.07,1.72 0.48,0.75 0.72,1.63 0.72,2.66 0,1.01 -0.24,1.9 -0.72,2.66 -0.48,0.75 -1.17,1.33 -2.07,1.73 -0.9,0.4 -1.95,0.6 -3.17,0.6l-3.16 0 0 4.04 -2.6 0 0 -14 5.76 0zm-0.12 7.77c1.14,0 2,-0.24 2.58,-0.72 0.59,-0.48 0.88,-1.17 0.88,-2.06 0,-0.89 -0.29,-1.58 -0.88,-2.06 -0.59,-0.48 -1.45,-0.72 -2.58,-0.72l-3.04 0 0 5.57 3.04 0zm11.6 -7.77l2.6 0 0 11.8 7.33 0 0 2.2 -9.93 0 0 -14 0 0zm14.7 0l2.6 0 0 14 -2.6 0 0 -14zm18.19 10.76l-7.01 0 -1.37 3.24 -2.68 0 6.3 -14 2.56 0 6.32 14 -2.72 0 -1.4 -3.24 0 0zm-0.86 -2.04l-2.64 -6.12 -2.62 6.12 5.26 0zm21.92 -8.72l0 14 -2.14 0 -7.72 -9.48 0 9.48 -2.58 0 0 -14 2.14 0 7.72 9.48 0 -9.48 2.58 0zm6.47 0l6.13 0c1.49,0 2.81,0.29 3.97,0.87 1.16,0.58 2.06,1.4 2.7,2.46 0.64,1.06 0.96,2.28 0.96,3.67 0,1.39 -0.32,2.61 -0.96,3.67 -0.64,1.06 -1.54,1.87 -2.7,2.45 -1.16,0.58 -2.49,0.87 -3.97,0.87l-6.13 0 0 -14zm6 11.8c1.03,0 1.93,-0.19 2.71,-0.59 0.78,-0.4 1.38,-0.96 1.8,-1.68 0.42,-0.73 0.63,-1.57 0.63,-2.53 0,-0.96 -0.21,-1.81 -0.63,-2.54 -0.42,-0.73 -1.02,-1.28 -1.8,-1.68 -0.78,-0.4 -1.68,-0.59 -2.71,-0.59l-3.4 0 0 9.61 3.4 0 0 0zm19.78 2.4c-1.42,0 -2.71,-0.31 -3.85,-0.93 -1.15,-0.62 -2.05,-1.48 -2.7,-2.58 -0.65,-1.1 -0.98,-2.33 -0.98,-3.69 0,-1.36 0.32,-2.59 0.98,-3.69 0.65,-1.1 1.55,-1.96 2.7,-2.58 1.15,-0.62 2.43,-0.93 3.85,-0.93 1.43,0 2.71,0.31 3.86,0.93 1.15,0.62 2.05,1.47 2.7,2.57 0.65,1.09 0.98,2.33 0.98,3.7 0,1.37 -0.33,2.61 -0.98,3.7 -0.65,1.09 -1.55,1.95 -2.7,2.57 -1.15,0.62 -2.44,0.93 -3.86,0.93l0 0zm0 -2.28c0.93,0 1.77,-0.21 2.52,-0.63 0.75,-0.42 1.34,-1.01 1.77,-1.76 0.43,-0.76 0.64,-1.6 0.64,-2.53 0,-0.93 -0.22,-1.78 -0.64,-2.53 -0.42,-0.76 -1.01,-1.35 -1.77,-1.77 -0.75,-0.42 -1.59,-0.63 -2.52,-0.63 -0.93,0 -1.77,0.21 -2.52,0.63 -0.75,0.42 -1.34,1.01 -1.76,1.77 -0.43,0.75 -0.64,1.59 -0.64,2.53 0,0.93 0.21,1.77 0.64,2.53 0.42,0.75 1.01,1.34 1.76,1.76 0.75,0.42 1.59,0.63 2.52,0.63zm27.75 2.28c-1.42,0 -2.7,-0.31 -3.84,-0.93 -1.14,-0.62 -2.03,-1.48 -2.67,-2.57 -0.65,-1.09 -0.97,-2.33 -0.97,-3.7 0,-1.37 0.32,-2.6 0.98,-3.7 0.65,-1.1 1.55,-1.96 2.69,-2.57 1.14,-0.62 2.42,-0.93 3.83,-0.93 1.15,0 2.19,0.2 3.14,0.6 0.94,0.39 1.74,0.97 2.4,1.74l-1.68 1.57c-1.01,-1.09 -2.26,-1.64 -3.74,-1.64 -0.96,0 -1.82,0.21 -2.58,0.63 -0.76,0.42 -1.35,1 -1.78,1.76 -0.43,0.75 -0.64,1.59 -0.64,2.54 0,0.95 0.21,1.79 0.64,2.54 0.43,0.75 1.02,1.33 1.78,1.75 0.76,0.42 1.62,0.63 2.58,0.63 1.48,0 2.73,-0.55 3.74,-1.66l1.68 1.59c-0.65,0.76 -1.46,1.35 -2.41,1.75 -0.95,0.4 -2,0.6 -3.15,0.6l0 0zm17.32 0c-1.42,0 -2.71,-0.31 -3.86,-0.93 -1.15,-0.62 -2.05,-1.48 -2.7,-2.58 -0.65,-1.1 -0.98,-2.33 -0.98,-3.69 0,-1.36 0.33,-2.59 0.98,-3.69 0.65,-1.1 1.55,-1.96 2.7,-2.58 1.15,-0.62 2.43,-0.93 3.86,-0.93 1.43,0 2.71,0.31 3.86,0.93 1.15,0.62 2.05,1.47 2.7,2.57 0.65,1.09 0.98,2.33 0.98,3.7 0,1.37 -0.33,2.61 -0.98,3.7 -0.65,1.09 -1.55,1.95 -2.7,2.57 -1.15,0.62 -2.44,0.93 -3.86,0.93l0 0zm0 -2.28c0.93,0 1.77,-0.21 2.52,-0.63 0.75,-0.42 1.34,-1.01 1.77,-1.76 0.43,-0.76 0.64,-1.6 0.64,-2.53 0,-0.93 -0.22,-1.78 -0.64,-2.53 -0.42,-0.76 -1.01,-1.35 -1.77,-1.77 -0.75,-0.42 -1.58,-0.63 -2.52,-0.63 -0.93,0 -1.77,0.21 -2.52,0.63 -0.75,0.42 -1.34,1.01 -1.76,1.77 -0.43,0.75 -0.64,1.59 -0.64,2.53 0,0.93 0.21,1.77 0.64,2.53 0.42,0.75 1.01,1.34 1.76,1.76 0.75,0.42 1.59,0.63 2.52,0.63zm25.47 -11.92l0 14 -2.14 0 -7.72 -9.48 0 9.48 -2.58 0 0 -14 2.14 0 7.72 9.48 0 -9.48 2.58 0zm16.98 11.82l0 2.18 -10.5 0 0 -14 10.22 0 0 2.18 -7.62 0 0 3.64 6.76 0 0 2.13 -6.76 0 0 3.86 7.9 0zm14.43 2.18l-3.8 -5.32 -3.75 5.32 -2.96 0 5.19 -7.14 -4.92 -6.86 2.94 0 3.58 4.98 3.54 -4.98 2.82 0 -4.9 6.76 5.26 7.24 -3 0zm14.3 0.2c-1.42,0 -2.71,-0.31 -3.86,-0.93 -1.15,-0.62 -2.05,-1.48 -2.7,-2.58 -0.65,-1.1 -0.98,-2.33 -0.98,-3.69 0,-1.36 0.32,-2.59 0.98,-3.69 0.65,-1.1 1.55,-1.96 2.7,-2.58 1.15,-0.62 2.43,-0.93 3.86,-0.93 1.43,0 2.71,0.31 3.86,0.93 1.15,0.62 2.05,1.47 2.7,2.57 0.65,1.09 0.98,2.33 0.98,3.7 0,1.37 -0.33,2.61 -0.98,3.7 -0.65,1.09 -1.55,1.95 -2.7,2.57 -1.15,0.62 -2.44,0.93 -3.86,0.93l0 0zm0 -2.28c0.93,0 1.77,-0.21 2.52,-0.63 0.75,-0.42 1.34,-1.01 1.77,-1.76 0.43,-0.76 0.64,-1.6 0.64,-2.53 0,-0.93 -0.22,-1.78 -0.64,-2.53 -0.42,-0.76 -1.01,-1.35 -1.77,-1.77 -0.75,-0.42 -1.58,-0.63 -2.52,-0.63 -0.93,0 -1.77,0.21 -2.52,0.63 -0.75,0.42 -1.34,1.01 -1.76,1.77 -0.43,0.75 -0.64,1.59 -0.64,2.53 0,0.93 0.21,1.77 0.64,2.53 0.42,0.75 1.01,1.34 1.76,1.76 0.75,0.42 1.59,0.63 2.52,0.63zm1.45 -13.06c-0.34,0 -0.63,-0.07 -0.87,-0.2 -0.24,-0.13 -0.55,-0.33 -0.91,-0.6 -0.21,-0.17 -0.39,-0.3 -0.53,-0.38 -0.14,-0.08 -0.28,-0.13 -0.41,-0.13 -0.28,0 -0.51,0.11 -0.7,0.32 -0.18,0.21 -0.27,0.5 -0.28,0.88l-1.34 0c0.01,-0.82 0.21,-1.47 0.6,-1.95 0.4,-0.49 0.92,-0.73 1.56,-0.73 0.33,0 0.62,0.07 0.86,0.2 0.25,0.14 0.55,0.33 0.92,0.59 0.21,0.18 0.39,0.31 0.53,0.39 0.14,0.09 0.28,0.13 0.41,0.13 0.27,0 0.5,-0.1 0.68,-0.29 0.18,-0.2 0.28,-0.48 0.3,-0.84l1.34 0c-0.03,0.78 -0.23,1.42 -0.62,1.9 -0.38,0.48 -0.9,0.72 -1.54,0.72l0 0zm22.08 12.96l0 2.18 -10.5 0 0 -14 10.22 0 0 2.18 -7.62 0 0 3.64 6.76 0 0 2.13 -6.76 0 0 3.86 7.9 0zm9.96 2.38c-1.08,0 -2.12,-0.15 -3.13,-0.46 -1,-0.31 -1.8,-0.72 -2.39,-1.23l0.91 -2.01c0.57,0.45 1.28,0.82 2.11,1.11 0.84,0.29 1.67,0.43 2.51,0.43 1.04,0 1.82,-0.16 2.33,-0.49 0.51,-0.33 0.77,-0.78 0.77,-1.33 0,-0.4 -0.14,-0.72 -0.43,-0.98 -0.29,-0.26 -0.65,-0.47 -1.09,-0.61 -0.44,-0.15 -1.04,-0.32 -1.8,-0.5 -1.07,-0.26 -1.93,-0.51 -2.59,-0.76 -0.67,-0.26 -1.23,-0.65 -1.7,-1.19 -0.47,-0.54 -0.71,-1.27 -0.71,-2.19 0,-0.77 0.21,-1.48 0.63,-2.11 0.42,-0.63 1.05,-1.14 1.9,-1.51 0.85,-0.38 1.89,-0.57 3.11,-0.57 0.85,0 1.69,0.11 2.52,0.32 0.83,0.22 1.54,0.52 2.14,0.92l-0.82 2.01c-0.6,-0.36 -1.24,-0.63 -1.91,-0.81 -0.67,-0.19 -1.31,-0.28 -1.94,-0.28 -1.03,0 -1.79,0.17 -2.29,0.52 -0.5,0.35 -0.75,0.81 -0.75,1.38 0,0.4 0.14,0.72 0.43,0.98 0.29,0.25 0.65,0.45 1.09,0.6 0.44,0.15 1.04,0.32 1.79,0.5 1.04,0.24 1.9,0.49 2.56,0.75 0.67,0.26 1.23,0.65 1.7,1.19 0.48,0.53 0.71,1.25 0.71,2.16 0.01,0.76 -0.2,1.46 -0.63,2.1 -0.42,0.63 -1.05,1.13 -1.91,1.5 -0.86,0.37 -1.89,0.56 -3.12,0.56l0 0z"/>
   <path class="fil2" d="M101.24 399.57l-6.87 2.57 6.87 2.56 0 2.07 -9.18 -3.55 0 -2.15 9.18 -3.56 0 2.07 0 0zm8.43 -2.23l0 4.24 6.73 0 0 2.2 -6.73 0 0 5.33 -2.59 0 0 -13.93 10.17 0 0 2.17 -7.58 0 0 0zm19.31 11.96c-1.42,0 -2.7,-0.31 -3.84,-0.92 -1.14,-0.62 -2.04,-1.48 -2.69,-2.57 -0.65,-1.1 -0.98,-2.32 -0.98,-3.67 0,-1.35 0.32,-2.58 0.98,-3.67 0.65,-1.1 1.54,-1.96 2.69,-2.57 1.14,-0.62 2.42,-0.93 3.84,-0.93 1.42,0 2.7,0.31 3.85,0.93 1.14,0.62 2.04,1.47 2.69,2.56 0.65,1.09 0.98,2.31 0.98,3.68 0,1.37 -0.33,2.6 -0.98,3.68 -0.65,1.09 -1.55,1.94 -2.69,2.56 -1.14,0.61 -2.42,0.92 -3.85,0.92l0 0zm0 -2.27c0.93,0 1.76,-0.21 2.51,-0.63 0.75,-0.42 1.34,-1 1.76,-1.75 0.42,-0.75 0.64,-1.59 0.64,-2.52 0,-0.93 -0.21,-1.77 -0.64,-2.51 -0.42,-0.75 -1.01,-1.34 -1.76,-1.76 -0.74,-0.42 -1.58,-0.63 -2.51,-0.63 -0.92,0 -1.76,0.21 -2.51,0.63 -0.75,0.42 -1.33,1.01 -1.75,1.76 -0.43,0.75 -0.64,1.59 -0.64,2.51 0,0.93 0.21,1.76 0.64,2.52 0.42,0.75 1,1.33 1.75,1.75 0.75,0.42 1.58,0.63 2.51,0.63zm22.08 2.07l-2.85 -4.08c-0.18,0.02 -0.36,0.02 -0.54,0.02l-3.14 0 0 4.06 -2.59 0 0 -13.93 5.73 0c1.21,0 2.26,0.2 3.15,0.6 0.9,0.4 1.59,0.97 2.06,1.71 0.48,0.74 0.72,1.62 0.72,2.64 0,1.05 -0.26,1.96 -0.77,2.72 -0.51,0.75 -1.24,1.32 -2.2,1.69l3.2 4.57 -2.78 0 0 0zm-0.06 -8.98c0,-0.89 -0.29,-1.57 -0.88,-2.05 -0.58,-0.48 -1.44,-0.72 -2.57,-0.72l-3.03 0 0 5.56 3.03 0c1.13,0 1.99,-0.24 2.57,-0.73 0.58,-0.49 0.88,-1.17 0.88,-2.06zm11.02 -2.77l-4.61 0 0 -2.19 11.82 0 0 2.19 -4.62 0 0 11.75 -2.59 0 0 -11.75 0 0zm20.9 8.52l-6.97 0 -1.37 3.23 -2.67 0 6.27 -13.93 2.55 0 6.29 13.93 -2.71 0 -1.39 -3.23zm-0.86 -2.03l-2.62 -6.09 -2.61 6.09 5.23 0zm9.43 -8.68l2.59 0 0 11.75 7.29 0 0 2.19 -9.88 0 0 -13.93zm25.09 11.76l0 2.17 -10.45 0 0 -13.93 10.17 0 0 2.17 -7.58 0 0 3.63 6.73 0 0 2.12 -6.73 0 0 3.85 7.87 0 0 0zm16.41 -0.02l0 2.19 -11.87 0 0 -1.73 8.19 -10.01 -8.06 0 0 -2.19 11.48 0 0 1.73 -8.2 10.01 8.46 0 0 0zm14.12 -1.04l-6.97 0 -1.37 3.23 -2.67 0 6.27 -13.93 2.55 0 6.29 13.93 -2.71 0 -1.39 -3.23 0 0zm-0.86 -2.03l-2.62 -6.09 -2.61 6.09 5.23 0zm13.53 -11.5l2.23 0 -6.57 18.74 -2.23 0 6.57 -18.74zm14.59 8.72l0 2.15 -9.18 3.55 0 -2.07 6.86 -2.56 -6.86 -2.57 0 -2.07 9.18 3.56zm-206.46 -193.36l-54.34 0c-7.47,0 -13.59,6.11 -13.59,13.58l0 54.33 13.59 0 0 -27.17 54.34 0 0 -13.58 -54.34 0 0 -13.58 54.34 0 0 -13.58 0 0zm74.72 13.58c0,-7.47 -6.11,-13.58 -13.58,-13.58l-54.34 0 0 67.92 13.59 0 0 -27.17 7.98 0 25.13 25.13c1.36,1.36 3.06,2.04 4.92,2.04l16.3 0 0 -13.58 -13.58 0 -13.59 -13.58 13.59 0c7.47,0 13.58,-6.11 13.58,-13.58l0 -13.58 0 0zm-13.58 0l0 13.58 -40.75 0 0 -13.58 40.75 0zm74.72 54.33c7.56,0 13.58,-6.2 13.58,-13.58l0 -40.75c0,-7.47 -6.11,-13.58 -13.58,-13.58l-40.75 0c-7.47,0 -13.59,6.11 -13.59,13.58l0 40.75c0,7.47 6.11,13.58 13.59,13.58l40.75 0 0 0zm-40.75 -54.33l40.75 0 0 40.75 -40.75 0 0 -40.75 0 0zm74.72 54.33l0 -44.74 42.71 42.7c1.27,1.27 2.97,2.04 4.84,2.04 3.74,0 6.79,-3.06 6.79,-6.79l0 -61.12 -13.58 0 0 44.74 -42.71 -42.7c-1.27,-1.27 -2.97,-2.04 -4.84,-2.04 -3.74,0 -6.79,3.06 -6.79,6.79l0 61.13 13.59 0zm129.05 -67.92l-67.92 0 0 13.58 27.17 0 0 54.33 13.58 0 0 -54.33 27.17 0 0 -13.58zm-321.6 90.93l-36.15 0c-4.97,0 -9.03,4.07 -9.03,9.04l0 27.11c0,4.97 4.07,9.04 9.03,9.04l36.15 0 0 -9.04 -36.15 0 0 -9.03 36.15 0 0 -9.04 -36.15 0 0 -9.04 36.15 0 0 -9.04zm23.49 45.18l0 -29.76 28.41 28.4c0.85,0.85 1.98,1.36 3.22,1.36 2.49,0 4.52,-2.03 4.52,-4.52l0 -40.66 -9.03 0 0 29.76 -28.41 -28.4c-0.85,-0.85 -1.98,-1.36 -3.22,-1.36 -2.49,0 -4.52,2.03 -4.52,4.52l0 40.66 9.03 0zm86.75 0c4.97,0 9.03,-4.07 9.03,-9.04l0 -27.11c0,-4.97 -4.06,-9.04 -9.03,-9.04l-36.15 0 0 45.18 36.15 0zm-27.11 -36.14l27.11 0 0 27.11 -27.11 0 0 -27.11z"/>
   <path class="fil1" d="M238.23 343.82c4.97,0 9.03,-4.07 9.03,-9.04l0 -27.11c0,-4.97 -4.06,-9.04 -9.03,-9.04l-36.15 0 0 45.18 36.15 0zm-27.11 -36.14l27.11 0 0 27.11 -27.11 0 0 -27.11zm59.64 -9.04c-4.97,0 -9.03,4.07 -9.03,9.04l0 36.14 9.03 0 0 -18.07 27.11 0 0 18.07 9.03 0 0 -36.14c0,-4.97 -4.06,-9.04 -9.03,-9.04l-27.11 0zm0 9.04l27.11 0 0 9.04 -27.11 0 0 -9.04zm86.75 9.04l-27.11 0 0 -18.07 -9.03 0 0 18.07c0,4.97 4.07,9.04 9.03,9.04l27.11 0 0 9.03 -36.15 0 0 9.04 36.15 0c4.97,0 9.03,-4.07 9.03,-9.04l0 -36.14 -9.03 0 0 18.07z"/>
  </g>
 </g>
</svg>
